<svg width="10" height="18" viewBox="0 0 10 18" fill="none" xmlns="http://www.w3.org/2000/svg">
<g clip-path="url(#clip0_69_879)">
<path d="M4.16678 9.74428L4.16678 13.909L1.66683 13.909L1.66683 15.5455L4.16678 15.5455L4.16678 18L5.83322 18L5.83322 15.5455L8.33337 15.5455L8.33337 13.909L5.83322 13.909L5.83322 9.74428C8.19756 9.35365 10 7.34019 10 4.90912C10 2.1981 7.76212 -2.14181e-07 5.0001 -4.55645e-07C2.23884 -6.97042e-07 1.38159e-06 2.1981 1.14459e-06 4.90912C9.32056e-07 7.34018 1.80358 9.35365 4.16678 9.74428V9.74428ZM5.0001 1.6365C6.84163 1.6365 8.33337 3.10184 8.33337 4.90912C8.33337 6.71641 6.84163 8.18175 5.0001 8.18175C3.15932 8.18175 1.66683 6.71641 1.66683 4.90912C1.66683 3.10184 3.15932 1.6365 5.0001 1.6365Z" fill="#F8C8C8"/>
</g>
<defs>
<clipPath id="clip0_69_879">
<rect width="10" height="18" fill="white" transform="translate(10 18) rotate(-180)"/>
</clipPath>
</defs>
</svg>
